<svg width="253" height="54" viewBox="0 0 253 54" fill="none" xmlns="http://www.w3.org/2000/svg">
<mask id="path-1-outside-1_1_2" maskUnits="userSpaceOnUse" x="0" y="0" width="253" height="54" fill="black">
<rect fill="white" width="253" height="54"/>
<path d="M3.875 50V3.4375H35.25V11.5625H13.6875V22.5H33.5938V30.4688H13.6875V41.875H35.3125V50H3.875ZM42.875 50V15.0625H52.0625V21.2812H52.5C53.2292 19.2188 54.4479 17.5938 56.1562 16.4062C57.8646 15.2188 59.8958 14.625 62.25 14.625C64.6458 14.625 66.6771 15.2292 68.3438 16.4375C70.0312 17.625 71.1458 19.2396 71.6875 21.2812H72.0625C72.7917 19.2604 74.0833 17.6458 75.9375 16.4375C77.8125 15.2292 80.0312 14.625 82.5938 14.625C85.8438 14.625 88.4896 15.6562 90.5312 17.7188C92.5938 19.7812 93.625 22.7083 93.625 26.5V50H83.9375V28.4375C83.9375 26.4792 83.4167 25.0208 82.375 24.0625C81.3542 23.1042 80.0729 22.625 78.5312 22.625C76.7812 22.625 75.4062 23.1875 74.4062 24.3125C73.4271 25.4167 72.9375 26.875 72.9375 28.6875V50H63.5312V28.1875C63.5312 26.5 63.0417 25.1562 62.0625 24.1562C61.1042 23.1354 59.8333 22.625 58.25 22.625C56.625 22.625 55.2708 23.2188 54.1875 24.4062C53.1042 25.5729 52.5625 27.125 52.5625 29.0625V50H42.875ZM101.375 3.4375H111.062V28.3438H111.594L122.75 15.0625H133.875L120.938 30.2188L134.5 50H123.188L113.688 35.9062L111.062 38.875V50H101.375V3.4375ZM148.594 50.6562C145.26 50.6562 142.49 49.7917 140.281 48.0625C138.094 46.3125 137 43.7083 137 40.25C137 37.6458 137.604 35.6042 138.812 34.125C140.042 32.625 141.656 31.5312 143.656 30.8438C145.656 30.1354 147.802 29.6771 150.094 29.4688C153.135 29.1771 155.302 28.875 156.594 28.5625C157.906 28.2292 158.562 27.5 158.562 26.375V26.2188C158.562 24.7812 158.104 23.6667 157.188 22.875C156.271 22.0833 154.948 21.6875 153.219 21.6875C151.49 21.6875 150.073 22.0625 148.969 22.8125C147.885 23.5625 147.167 24.5208 146.812 25.6875L138 24.2812C138.833 21.2396 140.583 18.875 143.25 17.1875C145.938 15.4792 149.271 14.625 153.25 14.625C155.833 14.625 158.26 15.0312 160.531 15.8438C162.823 16.6562 164.677 17.9375 166.094 19.6875C167.51 21.4167 168.219 23.6667 168.219 26.4375V50H159.062V45.125H158.781C157.927 46.7708 156.656 48.1042 154.969 49.125C153.302 50.1458 151.177 50.6562 148.594 50.6562ZM146.219 39.9375C146.219 41.2708 146.698 42.2812 147.656 42.9688C148.635 43.6354 149.865 43.9688 151.344 43.9688C153.469 43.9688 155.208 43.3542 156.562 42.125C157.938 40.8958 158.625 39.3646 158.625 37.5312V33.8125C158.25 34.0625 157.656 34.2917 156.844 34.5C156.052 34.7083 155.208 34.8854 154.312 35.0312C153.417 35.1562 152.615 35.2708 151.906 35.375C150.198 35.625 148.823 36.1146 147.781 36.8438C146.74 37.5521 146.219 38.5833 146.219 39.9375ZM207.562 50H191.062V3.4375H207.688C212.375 3.4375 216.406 4.375 219.781 6.25C223.156 8.10417 225.75 10.7708 227.562 14.25C229.396 17.7083 230.312 21.8542 230.312 26.6875C230.312 31.5417 229.396 35.7083 227.562 39.1875C225.75 42.6667 223.146 45.3438 219.75 47.2188C216.354 49.0729 212.292 50 207.562 50ZM200.875 41.5625H207.125C211.521 41.5625 214.854 40.3854 217.125 38.0312C219.396 35.6771 220.531 31.8958 220.531 26.6875C220.531 21.5208 219.396 17.7604 217.125 15.4062C214.854 13.0521 211.521 11.875 207.125 11.875H200.875V41.5625ZM244.375 50.5938C242.833 50.5938 241.531 50.0729 240.469 49.0312C239.406 47.9688 238.875 46.6771 238.875 45.1562C238.875 43.6146 239.406 42.3229 240.469 41.2812C241.531 40.2396 242.833 39.7188 244.375 39.7188C245.917 39.7188 247.219 40.2396 248.281 41.2812C249.344 42.3229 249.875 43.6146 249.875 45.1562C249.875 46.6771 249.344 47.9688 248.281 49.0312C247.219 50.0729 245.917 50.5938 244.375 50.5938Z"/>
</mask>
<path d="M3.875 50V3.4375H35.25V11.5625H13.6875V22.5H33.5938V30.4688H13.6875V41.875H35.3125V50H3.875ZM42.875 50V15.0625H52.0625V21.2812H52.5C53.2292 19.2188 54.4479 17.5938 56.1562 16.4062C57.8646 15.2188 59.8958 14.625 62.25 14.625C64.6458 14.625 66.6771 15.2292 68.3438 16.4375C70.0312 17.625 71.1458 19.2396 71.6875 21.2812H72.0625C72.7917 19.2604 74.0833 17.6458 75.9375 16.4375C77.8125 15.2292 80.0312 14.625 82.5938 14.625C85.8438 14.625 88.4896 15.6562 90.5312 17.7188C92.5938 19.7812 93.625 22.7083 93.625 26.5V50H83.9375V28.4375C83.9375 26.4792 83.4167 25.0208 82.375 24.0625C81.3542 23.1042 80.0729 22.625 78.5312 22.625C76.7812 22.625 75.4062 23.1875 74.4062 24.3125C73.4271 25.4167 72.9375 26.875 72.9375 28.6875V50H63.5312V28.1875C63.5312 26.5 63.0417 25.1562 62.0625 24.1562C61.1042 23.1354 59.8333 22.625 58.25 22.625C56.625 22.625 55.2708 23.2188 54.1875 24.4062C53.1042 25.5729 52.5625 27.125 52.5625 29.0625V50H42.875ZM101.375 3.4375H111.062V28.3438H111.594L122.75 15.0625H133.875L120.938 30.2188L134.5 50H123.188L113.688 35.9062L111.062 38.875V50H101.375V3.4375ZM148.594 50.6562C145.26 50.6562 142.49 49.7917 140.281 48.0625C138.094 46.3125 137 43.7083 137 40.25C137 37.6458 137.604 35.6042 138.812 34.125C140.042 32.625 141.656 31.5312 143.656 30.8438C145.656 30.1354 147.802 29.6771 150.094 29.4688C153.135 29.1771 155.302 28.875 156.594 28.5625C157.906 28.2292 158.562 27.5 158.562 26.375V26.2188C158.562 24.7812 158.104 23.6667 157.188 22.875C156.271 22.0833 154.948 21.6875 153.219 21.6875C151.49 21.6875 150.073 22.0625 148.969 22.8125C147.885 23.5625 147.167 24.5208 146.812 25.6875L138 24.2812C138.833 21.2396 140.583 18.875 143.25 17.1875C145.938 15.4792 149.271 14.625 153.25 14.625C155.833 14.625 158.26 15.0312 160.531 15.8438C162.823 16.6562 164.677 17.9375 166.094 19.6875C167.51 21.4167 168.219 23.6667 168.219 26.4375V50H159.062V45.125H158.781C157.927 46.7708 156.656 48.1042 154.969 49.125C153.302 50.1458 151.177 50.6562 148.594 50.6562ZM146.219 39.9375C146.219 41.2708 146.698 42.2812 147.656 42.9688C148.635 43.6354 149.865 43.9688 151.344 43.9688C153.469 43.9688 155.208 43.3542 156.562 42.125C157.938 40.8958 158.625 39.3646 158.625 37.5312V33.8125C158.25 34.0625 157.656 34.2917 156.844 34.5C156.052 34.7083 155.208 34.8854 154.312 35.0312C153.417 35.1562 152.615 35.2708 151.906 35.375C150.198 35.625 148.823 36.1146 147.781 36.8438C146.74 37.5521 146.219 38.5833 146.219 39.9375ZM207.562 50H191.062V3.4375H207.688C212.375 3.4375 216.406 4.375 219.781 6.25C223.156 8.10417 225.75 10.7708 227.562 14.25C229.396 17.7083 230.312 21.8542 230.312 26.6875C230.312 31.5417 229.396 35.7083 227.562 39.1875C225.75 42.6667 223.146 45.3438 219.75 47.2188C216.354 49.0729 212.292 50 207.562 50ZM200.875 41.5625H207.125C211.521 41.5625 214.854 40.3854 217.125 38.0312C219.396 35.6771 220.531 31.8958 220.531 26.6875C220.531 21.5208 219.396 17.7604 217.125 15.4062C214.854 13.0521 211.521 11.875 207.125 11.875H200.875V41.5625ZM244.375 50.5938C242.833 50.5938 241.531 50.0729 240.469 49.0312C239.406 47.9688 238.875 46.6771 238.875 45.1562C238.875 43.6146 239.406 42.3229 240.469 41.2812C241.531 40.2396 242.833 39.7188 244.375 39.7188C245.917 39.7188 247.219 40.2396 248.281 41.2812C249.344 42.3229 249.875 43.6146 249.875 45.1562C249.875 46.6771 249.344 47.9688 248.281 49.0312C247.219 50.0729 245.917 50.5938 244.375 50.5938Z" fill="black"/>
<path d="M3.875 50H0.875V53H3.875V50ZM3.875 3.4375V0.4375H0.875V3.4375H3.875ZM35.25 3.4375H38.25V0.4375H35.25V3.4375ZM35.25 11.5625V14.5625H38.25V11.5625H35.25ZM13.6875 11.5625V8.5625H10.6875V11.5625H13.6875ZM13.6875 22.5H10.6875V25.5H13.6875V22.5ZM33.5938 22.5H36.5938V19.5H33.5938V22.5ZM33.5938 30.4688V33.4688H36.5938V30.4688H33.5938ZM13.6875 30.4688V27.4688H10.6875V30.4688H13.6875ZM13.6875 41.875H10.6875V44.875H13.6875V41.875ZM35.3125 41.875H38.3125V38.875H35.3125V41.875ZM35.3125 50V53H38.3125V50H35.3125ZM3.875 50H6.875V3.4375H3.875H0.875V50H3.875ZM3.875 3.4375V6.4375H35.25V3.4375V0.4375H3.875V3.4375ZM35.25 3.4375H32.25V11.5625H35.25H38.25V3.4375H35.25ZM35.25 11.5625V8.5625H13.6875V11.5625V14.5625H35.25V11.5625ZM13.6875 11.5625H10.6875V22.5H13.6875H16.6875V11.5625H13.6875ZM13.6875 22.5V25.5H33.5938V22.5V19.5H13.6875V22.5ZM33.5938 22.5H30.5938V30.4688H33.5938H36.5938V22.5H33.5938ZM33.5938 30.4688V27.4688H13.6875V30.4688V33.4688H33.5938V30.4688ZM13.6875 30.4688H10.6875V41.875H13.6875H16.6875V30.4688H13.6875ZM13.6875 41.875V44.875H35.3125V41.875V38.875H13.6875V41.875ZM35.3125 41.875H32.3125V50H35.3125H38.3125V41.875H35.3125ZM35.3125 50V47H3.875V50V53H35.3125V50ZM42.875 50H39.875V53H42.875V50ZM42.875 15.0625V12.0625H39.875V15.0625H42.875ZM52.0625 15.0625H55.0625V12.0625H52.0625V15.0625ZM52.0625 21.2812H49.0625V24.2812H52.0625V21.2812ZM52.5 21.2812V24.2812H54.6214L55.3284 22.2812L52.5 21.2812ZM68.3438 16.4375L66.5828 18.8663L66.6 18.8787L66.6173 18.8909L68.3438 16.4375ZM71.6875 21.2812L68.7878 22.0506L69.3796 24.2812H71.6875V21.2812ZM72.0625 21.2812V24.2812H74.1693L74.8844 22.2995L72.0625 21.2812ZM75.9375 16.4375L74.3124 13.9158L74.306 13.9199L74.2996 13.9241L75.9375 16.4375ZM90.5312 17.7188L88.3992 19.8293L88.4045 19.8347L88.4099 19.8401L90.5312 17.7188ZM93.625 50V53H96.625V50H93.625ZM83.9375 50H80.9375V53H83.9375V50ZM82.375 24.0625L80.3217 26.2497L80.3327 26.2601L80.3438 26.2703L82.375 24.0625ZM74.4062 24.3125L72.164 22.3194L72.1617 22.322L74.4062 24.3125ZM72.9375 50V53H75.9375V50H72.9375ZM63.5312 50H60.5312V53H63.5312V50ZM62.0625 24.1562L59.8753 26.2096L59.8969 26.2326L59.919 26.2551L62.0625 24.1562ZM54.1875 24.4062L56.3859 26.4476L56.3949 26.4379L56.4038 26.4281L54.1875 24.4062ZM52.5625 50V53H55.5625V50H52.5625ZM42.875 50H45.875V15.0625H42.875H39.875V50H42.875ZM42.875 15.0625V18.0625H52.0625V15.0625V12.0625H42.875V15.0625ZM52.0625 15.0625H49.0625V21.2812H52.0625H55.0625V15.0625H52.0625ZM52.0625 21.2812V24.2812H52.5V21.2812V18.2812H52.0625V21.2812ZM52.5 21.2812L55.3284 22.2812C55.8595 20.7789 56.704 19.6791 57.8686 18.8696L56.1562 16.4062L54.4439 13.9429C52.1919 15.5084 50.5988 17.6586 49.6716 20.2813L52.5 21.2812ZM56.1562 16.4062L57.8686 18.8696C59.0097 18.0763 60.4244 17.625 62.25 17.625V14.625V11.625C59.3672 11.625 56.7194 12.3612 54.4439 13.9429L56.1562 16.4062ZM62.25 14.625V17.625C64.1205 17.625 65.5087 18.0876 66.5828 18.8663L68.3438 16.4375L70.1047 14.0087C67.8455 12.3708 65.1712 11.625 62.25 11.625V14.625ZM68.3438 16.4375L66.6173 18.8909C67.7131 19.6621 68.4224 20.6731 68.7878 22.0506L71.6875 21.2812L74.5872 20.5119C73.8693 17.8061 72.3494 15.5879 70.0702 13.9841L68.3438 16.4375ZM71.6875 21.2812V24.2812H72.0625V21.2812V18.2812H71.6875V21.2812ZM72.0625 21.2812L74.8844 22.2995C75.385 20.9122 76.2503 19.8144 77.5754 18.9509L75.9375 16.4375L74.2996 13.9241C71.9163 15.4772 70.1983 17.6087 69.2406 20.263L72.0625 21.2812ZM75.9375 16.4375L77.5626 18.9592C78.8842 18.1075 80.5198 17.625 82.5938 17.625V14.625V11.625C79.5427 11.625 76.7408 12.3508 74.3124 13.9158L75.9375 16.4375ZM82.5938 14.625V17.625C85.1479 17.625 86.9909 18.4066 88.3992 19.8293L90.5312 17.7188L92.6633 15.6082C89.9883 12.9059 86.5396 11.625 82.5938 11.625V14.625ZM90.5312 17.7188L88.4099 19.8401C89.7554 21.1856 90.625 23.2552 90.625 26.5H93.625H96.625C96.625 22.1614 95.4321 18.3769 92.6526 15.5974L90.5312 17.7188ZM93.625 26.5H90.625V50H93.625H96.625V26.5H93.625ZM93.625 50V47H83.9375V50V53H93.625V50ZM83.9375 50H86.9375V28.4375H83.9375H80.9375V50H83.9375ZM83.9375 28.4375H86.9375C86.9375 25.9725 86.2735 23.5727 84.4062 21.8547L82.375 24.0625L80.3438 26.2703C80.5598 26.469 80.9375 26.9858 80.9375 28.4375H83.9375ZM82.375 24.0625L84.4283 21.8753C82.793 20.3401 80.7519 19.625 78.5312 19.625V22.625V25.625C79.3939 25.625 79.9153 25.8682 80.3217 26.2497L82.375 24.0625ZM78.5312 22.625V19.625C76.0779 19.625 73.828 20.4475 72.164 22.3194L74.4062 24.3125L76.6485 26.3056C76.9845 25.9275 77.4846 25.625 78.5312 25.625V22.625ZM74.4062 24.3125L72.1617 22.322C70.5912 24.093 69.9375 26.3161 69.9375 28.6875H72.9375H75.9375C75.9375 27.4339 76.2629 26.7404 76.6508 26.303L74.4062 24.3125ZM72.9375 28.6875H69.9375V50H72.9375H75.9375V28.6875H72.9375ZM72.9375 50V47H63.5312V50V53H72.9375V50ZM63.5312 50H66.5312V28.1875H63.5312H60.5312V50H63.5312ZM63.5312 28.1875H66.5312C66.5312 25.8873 65.8438 23.73 64.206 22.0574L62.0625 24.1562L59.919 26.2551C60.2395 26.5825 60.5312 27.1127 60.5312 28.1875H63.5312ZM62.0625 24.1562L64.2497 22.1029C62.6475 20.3962 60.5425 19.625 58.25 19.625V22.625V25.625C59.1241 25.625 59.5608 25.8746 59.8753 26.2096L62.0625 24.1562ZM58.25 22.625V19.625C55.7921 19.625 53.63 20.566 51.9712 22.3844L54.1875 24.4062L56.4038 26.4281C56.9116 25.8715 57.4579 25.625 58.25 25.625V22.625ZM54.1875 24.4062L51.9891 22.3649C50.2837 24.2015 49.5625 26.5409 49.5625 29.0625H52.5625H55.5625C55.5625 27.7091 55.9246 26.9444 56.3859 26.4476L54.1875 24.4062ZM52.5625 29.0625H49.5625V50H52.5625H55.5625V29.0625H52.5625ZM52.5625 50V47H42.875V50V53H52.5625V50ZM101.375 3.4375V0.4375H98.375V3.4375H101.375ZM111.062 3.4375H114.062V0.4375H111.062V3.4375ZM111.062 28.3438H108.062V31.3438H111.062V28.3438ZM111.594 28.3438V31.3438H112.992L113.891 30.2733L111.594 28.3438ZM122.75 15.0625V12.0625H121.352L120.453 13.1329L122.75 15.0625ZM133.875 15.0625L136.157 17.0102L140.38 12.0625H133.875V15.0625ZM120.938 30.2188L118.656 28.271L117.163 30.0193L118.463 31.9152L120.938 30.2188ZM134.5 50V53H140.194L136.974 48.3036L134.5 50ZM123.188 50L120.7 51.6768L121.592 53H123.188V50ZM113.688 35.9062L116.175 34.2294L114.008 31.0146L111.44 33.919L113.688 35.9062ZM111.062 38.875L108.815 36.8878L108.062 37.7389V38.875H111.062ZM111.062 50V53H114.062V50H111.062ZM101.375 50H98.375V53H101.375V50ZM101.375 3.4375V6.4375H111.062V3.4375V0.4375H101.375V3.4375ZM111.062 3.4375H108.062V28.3438H111.062H114.062V3.4375H111.062ZM111.062 28.3438V31.3438H111.594V28.3438V25.3438H111.062V28.3438ZM111.594 28.3438L113.891 30.2733L125.047 16.9921L122.75 15.0625L120.453 13.1329L109.297 26.4142L111.594 28.3438ZM122.75 15.0625V18.0625H133.875V15.0625V12.0625H122.75V15.0625ZM133.875 15.0625L131.593 13.1148L118.656 28.271L120.938 30.2188L123.219 32.1665L136.157 17.0102L133.875 15.0625ZM120.938 30.2188L118.463 31.9152L132.026 51.6964L134.5 50L136.974 48.3036L123.412 28.5223L120.938 30.2188ZM134.5 50V47H123.188V50V53H134.5V50ZM123.188 50L125.675 48.3232L116.175 34.2294L113.688 35.9062L111.2 37.5831L120.7 51.6768L123.188 50ZM113.688 35.9062L111.44 33.919L108.815 36.8878L111.062 38.875L113.31 40.8622L115.935 37.8935L113.688 35.9062ZM111.062 38.875H108.062V50H111.062H114.062V38.875H111.062ZM111.062 50V47H101.375V50V53H111.062V50ZM101.375 50H104.375V3.4375H101.375H98.375V50H101.375ZM140.281 48.0625L138.407 50.4051L138.419 50.4149L138.432 50.4245L140.281 48.0625ZM138.812 34.125L136.492 32.2235L136.489 32.2271L138.812 34.125ZM143.656 30.8438L144.631 33.6808L144.645 33.6763L144.658 33.6716L143.656 30.8438ZM150.094 29.4688L150.365 32.4564L150.373 32.4558L150.38 32.4551L150.094 29.4688ZM156.594 28.5625L157.299 31.4784L157.316 31.4744L157.332 31.4702L156.594 28.5625ZM148.969 22.8125L147.283 20.3308L147.272 20.3383L147.261 20.3459L148.969 22.8125ZM146.812 25.6875L146.34 28.65L148.923 29.0623L149.683 26.5589L146.812 25.6875ZM138 24.2812L135.107 23.4885L134.222 26.7164L137.527 27.2438L138 24.2812ZM143.25 17.1875L144.854 19.7226L144.859 19.7193L143.25 17.1875ZM160.531 15.8438L159.521 18.6684L159.529 18.6713L160.531 15.8438ZM166.094 19.6875L163.762 21.5751L163.768 21.5819L163.773 21.5887L166.094 19.6875ZM168.219 50V53H171.219V50H168.219ZM159.062 50H156.062V53H159.062V50ZM159.062 45.125H162.062V42.125H159.062V45.125ZM158.781 45.125V42.125H156.958L156.118 43.7431L158.781 45.125ZM154.969 49.125L153.416 46.5581L153.409 46.5624L153.402 46.5667L154.969 49.125ZM147.656 42.9688L145.908 45.4064L145.937 45.4278L145.968 45.4485L147.656 42.9688ZM156.562 42.125L154.563 39.8884L154.555 39.896L154.546 39.9036L156.562 42.125ZM158.625 33.8125H161.625V28.2069L156.961 31.3163L158.625 33.8125ZM156.844 34.5L156.099 31.594L156.089 31.5964L156.08 31.5988L156.844 34.5ZM154.312 35.0312L154.727 38.0025L154.761 37.9978L154.795 37.9923L154.312 35.0312ZM151.906 35.375L152.341 38.3434L152.343 38.3431L151.906 35.375ZM147.781 36.8438L149.468 39.3245L149.485 39.3131L149.502 39.3014L147.781 36.8438ZM148.594 50.6562V47.6562C145.8 47.6562 143.717 46.9422 142.131 45.7005L140.281 48.0625L138.432 50.4245C141.263 52.6412 144.721 53.6562 148.594 53.6562V50.6562ZM140.281 48.0625L142.155 45.7199C140.845 44.6716 140 43.0323 140 40.25H137H134C134 44.3844 135.343 47.9534 138.407 50.4051L140.281 48.0625ZM137 40.25H140C140 38.0872 140.501 36.8002 141.136 36.0229L138.812 34.125L136.489 32.2271C134.707 34.4082 134 37.2044 134 40.25H137ZM138.812 34.125L141.133 36.0265C141.978 34.9958 143.109 34.2043 144.631 33.6808L143.656 30.8438L142.681 28.0067C140.204 28.8582 138.106 30.2542 136.492 32.2235L138.812 34.125ZM143.656 30.8438L144.658 33.6716C146.403 33.0535 148.302 32.644 150.365 32.4564L150.094 29.4688L149.822 26.4811C147.302 26.7101 144.909 27.2173 142.655 28.0159L143.656 30.8438ZM150.094 29.4688L150.38 32.4551C153.429 32.1627 155.782 31.8454 157.299 31.4784L156.594 28.5625L155.888 25.6466C154.822 25.9046 152.841 26.1915 149.807 26.4824L150.094 29.4688ZM156.594 28.5625L157.332 31.4702C158.352 31.2112 159.45 30.7168 160.3 29.7725C161.197 28.7764 161.562 27.5624 161.562 26.375H158.562H155.562C155.562 26.3636 155.565 26.2759 155.611 26.1436C155.66 26.005 155.74 25.87 155.84 25.7587C156.034 25.5436 156.148 25.5804 155.855 25.6548L156.594 28.5625ZM158.562 26.375H161.562V26.2188H158.562H155.562V26.375H158.562ZM158.562 26.2188H161.562C161.562 24.0886 160.849 22.0736 159.148 20.6045L157.188 22.875L155.227 25.1455C155.359 25.2597 155.562 25.4739 155.562 26.2188H158.562ZM157.188 22.875L159.148 20.6045C157.494 19.1759 155.364 18.6875 153.219 18.6875V21.6875V24.6875C154.532 24.6875 155.048 24.9908 155.227 25.1455L157.188 22.875ZM153.219 21.6875V18.6875C151.065 18.6875 149.013 19.1561 147.283 20.3308L148.969 22.8125L150.654 25.2942C151.133 24.9689 151.915 24.6875 153.219 24.6875V21.6875ZM148.969 22.8125L147.261 20.3459C145.669 21.448 144.509 22.948 143.942 24.8161L146.812 25.6875L149.683 26.5589C149.824 26.0937 150.102 25.677 150.676 25.2791L148.969 22.8125ZM146.812 25.6875L147.285 22.725L138.473 21.3187L138 24.2812L137.527 27.2438L146.34 28.65L146.812 25.6875ZM138 24.2812L140.893 25.074C141.529 22.7539 142.819 21.0105 144.854 19.7226L143.25 17.1875L141.646 14.6524C138.348 16.7395 136.138 19.7252 135.107 23.4885L138 24.2812ZM143.25 17.1875L144.859 19.7193C146.959 18.3848 149.699 17.625 153.25 17.625V14.625V11.625C148.843 11.625 144.916 12.5735 141.641 14.6557L143.25 17.1875ZM153.25 14.625V17.625C155.513 17.625 157.596 17.9799 159.521 18.6684L160.531 15.8438L161.542 13.0191C158.924 12.0826 156.153 11.625 153.25 11.625V14.625ZM160.531 15.8438L159.529 18.6713C161.342 19.3143 162.721 20.2892 163.762 21.5751L166.094 19.6875L168.425 17.7999C166.633 15.5858 164.303 13.9982 161.534 13.0162L160.531 15.8438ZM166.094 19.6875L163.773 21.5887C164.653 22.6629 165.219 24.189 165.219 26.4375H168.219H171.219C171.219 23.1444 170.368 20.1704 168.414 17.7863L166.094 19.6875ZM168.219 26.4375H165.219V50H168.219H171.219V26.4375H168.219ZM168.219 50V47H159.062V50V53H168.219V50ZM159.062 50H162.062V45.125H159.062H156.062V50H159.062ZM159.062 45.125V42.125H158.781V45.125V48.125H159.062V45.125ZM158.781 45.125L156.118 43.7431C155.535 44.8679 154.663 45.8038 153.416 46.5581L154.969 49.125L156.522 51.6919C158.65 50.4045 160.319 48.6737 161.444 46.5069L158.781 45.125ZM154.969 49.125L153.402 46.5667C152.336 47.2198 150.798 47.6562 148.594 47.6562V50.6562V53.6562C151.557 53.6562 154.269 53.0718 156.536 51.6833L154.969 49.125ZM146.219 39.9375H143.219C143.219 42.0919 144.052 44.0755 145.908 45.4064L147.656 42.9688L149.405 40.5311C149.316 40.4669 149.299 40.4304 149.289 40.4099C149.273 40.3763 149.219 40.244 149.219 39.9375H146.219ZM147.656 42.9688L145.968 45.4485C147.556 46.5299 149.413 46.9688 151.344 46.9688V43.9688V40.9688C150.316 40.9688 149.715 40.7409 149.345 40.489L147.656 42.9688ZM151.344 43.9688V46.9688C154.086 46.9688 156.584 46.1568 158.579 44.3464L156.562 42.125L154.546 39.9036C153.832 40.5515 152.852 40.9688 151.344 40.9688V43.9688ZM156.562 42.125L158.562 44.3616C160.569 42.5672 161.625 40.2244 161.625 37.5312H158.625H155.625C155.625 38.5048 155.306 39.2245 154.563 39.8884L156.562 42.125ZM158.625 37.5312H161.625V33.8125H158.625H155.625V37.5312H158.625ZM158.625 33.8125L156.961 31.3163C157.014 31.2809 156.987 31.3081 156.818 31.3731C156.659 31.4346 156.425 31.5104 156.099 31.594L156.844 34.5L157.589 37.406C158.497 37.173 159.486 36.8438 160.289 36.3087L158.625 33.8125ZM156.844 34.5L156.08 31.5988C155.391 31.7802 154.642 31.9382 153.83 32.0702L154.312 35.0312L154.795 37.9923C155.775 37.8327 156.713 37.6364 157.607 37.4012L156.844 34.5ZM154.312 35.0312L153.898 32.06C152.997 32.1858 152.187 32.3014 151.47 32.4069L151.906 35.375L152.343 38.3431C153.042 38.2402 153.837 38.1267 154.727 38.0025L154.312 35.0312ZM151.906 35.375L151.472 32.4066C149.458 32.7013 147.597 33.3105 146.061 34.3861L147.781 36.8438L149.502 39.3014C150.048 38.9187 150.938 38.5487 152.341 38.3434L151.906 35.375ZM147.781 36.8438L146.094 34.363C144.161 35.6777 143.219 37.6782 143.219 39.9375H146.219H149.219C149.219 39.6496 149.272 39.5306 149.287 39.5009C149.298 39.4796 149.329 39.4192 149.468 39.3245L147.781 36.8438ZM191.062 50H188.062V53H191.062V50ZM191.062 3.4375V0.4375H188.062V3.4375H191.062ZM219.781 6.25L218.324 8.87247L218.331 8.87592L218.337 8.87933L219.781 6.25ZM227.562 14.25L224.902 15.6361L224.907 15.6456L224.912 15.6551L227.562 14.25ZM227.562 39.1875L224.908 37.7889L224.902 37.8014L227.562 39.1875ZM219.75 47.2188L221.188 49.8518L221.2 49.845L219.75 47.2188ZM200.875 41.5625H197.875V44.5625H200.875V41.5625ZM217.125 38.0312L214.966 35.9485L217.125 38.0312ZM217.125 15.4062L214.966 17.489L217.125 15.4062ZM200.875 11.875V8.875H197.875V11.875H200.875ZM207.562 50V47H191.062V50V53H207.562V50ZM191.062 50H194.062V3.4375H191.062H188.062V50H191.062ZM191.062 3.4375V6.4375H207.688V3.4375V0.4375H191.062V3.4375ZM207.688 3.4375V6.4375C211.974 6.4375 215.481 7.29291 218.324 8.87247L219.781 6.25L221.238 3.62753C217.331 1.45709 212.776 0.4375 207.688 0.4375V3.4375ZM219.781 6.25L218.337 8.87933C221.182 10.4426 223.358 12.6718 224.902 15.6361L227.562 14.25L230.223 12.8639C228.142 8.86983 225.13 5.76572 221.226 3.62067L219.781 6.25ZM227.562 14.25L224.912 15.6551C226.468 18.5905 227.312 22.2307 227.312 26.6875H230.312H233.312C233.312 21.4776 232.324 16.8261 230.213 12.8449L227.562 14.25ZM230.312 26.6875H227.312C227.312 31.1668 226.467 34.8305 224.908 37.789L227.562 39.1875L230.217 40.586C232.324 36.5861 233.312 31.9166 233.312 26.6875H230.312ZM227.562 39.1875L224.902 37.8014C223.359 40.7634 221.173 43.0062 218.3 44.5925L219.75 47.2188L221.2 49.845C225.119 47.6813 228.141 44.5699 230.223 40.5736L227.562 39.1875ZM219.75 47.2188L218.312 44.5857C215.445 46.1511 211.9 47 207.562 47V50V53C212.683 53 217.263 51.9947 221.188 49.8518L219.75 47.2188ZM200.875 41.5625V44.5625H207.125V41.5625V38.5625H200.875V41.5625ZM207.125 41.5625V44.5625C212.045 44.5625 216.274 43.2347 219.284 40.114L217.125 38.0312L214.966 35.9485C213.434 37.5362 210.997 38.5625 207.125 38.5625V41.5625ZM217.125 38.0312L219.284 40.114C222.338 36.948 223.531 32.2314 223.531 26.6875H220.531H217.531C217.531 31.5603 216.454 34.4062 214.966 35.9485L217.125 38.0312ZM220.531 26.6875H223.531C223.531 21.1772 222.335 16.4859 219.284 13.3235L217.125 15.4062L214.966 17.489C216.457 19.035 217.531 21.8644 217.531 26.6875H220.531ZM217.125 15.4062L219.284 13.3235C216.274 10.2028 212.045 8.875 207.125 8.875V11.875V14.875C210.997 14.875 213.434 15.9013 214.966 17.489L217.125 15.4062ZM207.125 11.875V8.875H200.875V11.875V14.875H207.125V11.875ZM200.875 11.875H197.875V41.5625H200.875H203.875V11.875H200.875ZM240.469 49.0312L238.347 51.1526L238.358 51.1631L238.369 51.1735L240.469 49.0312ZM240.469 41.2812L238.369 39.139L240.469 41.2812ZM248.281 49.0312L250.381 51.1735L250.392 51.1631L250.403 51.1526L248.281 49.0312ZM244.375 50.5938V47.5938C243.587 47.5938 243.049 47.3592 242.569 46.889L240.469 49.0312L238.369 51.1735C240.014 52.7867 242.08 53.5938 244.375 53.5938V50.5938ZM240.469 49.0312L242.59 46.9099C242.098 46.4177 241.875 45.8923 241.875 45.1562H238.875H235.875C235.875 47.4619 236.715 49.5198 238.347 51.1526L240.469 49.0312ZM238.875 45.1562H241.875C241.875 44.3879 242.105 43.8785 242.569 43.4235L240.469 41.2812L238.369 39.139C236.708 40.7673 235.875 42.8412 235.875 45.1562H238.875ZM240.469 41.2812L242.569 43.4235C243.049 42.9533 243.587 42.7188 244.375 42.7188V39.7188V36.7188C242.08 36.7188 240.014 37.5258 238.369 39.139L240.469 41.2812ZM244.375 39.7188V42.7188C245.163 42.7188 245.701 42.9533 246.181 43.4235L248.281 41.2812L250.381 39.139C248.736 37.5258 246.67 36.7188 244.375 36.7188V39.7188ZM248.281 41.2812L246.181 43.4235C246.645 43.8785 246.875 44.3879 246.875 45.1562H249.875H252.875C252.875 42.8412 252.042 40.7673 250.381 39.139L248.281 41.2812ZM249.875 45.1562H246.875C246.875 45.8923 246.652 46.4177 246.16 46.9099L248.281 49.0312L250.403 51.1526C252.035 49.5198 252.875 47.4619 252.875 45.1562H249.875ZM248.281 49.0312L246.181 46.889C245.701 47.3592 245.163 47.5938 244.375 47.5938V50.5938V53.5938C246.67 53.5938 248.736 52.7867 250.381 51.1735L248.281 49.0312Z" fill="#206803" mask="url(#path-1-outside-1_1_2)"/>
</svg>
