<?xml version="1.0"?>
<svg width="993" height="1024" xmlns="http://www.w3.org/2000/svg" xmlns:svg="http://www.w3.org/2000/svg" preserveAspectRatio="xMidYMid meet" version="1.0">
 <g class="layer">
  <title>Layer 1</title>
  <g fill="#000000" id="svg_1" transform="matrix(0.1 0 0 -0.1 0 0)">
   <path d="m6867,-11c-245,-17 -535,-65 -764,-125c-76,-20 -147,-37 -158,-36c-11,0 -87,9 -170,21c-333,45 -752,52 -990,17c-266,-39 -505,-112 -721,-220l-141,-71l-119,38c-493,157 -1031,247 -1482,247c-463,0 -840,-79 -1177,-247c-212,-106 -353,-211 -525,-390c-338,-351 -523,-803 -592,-1443c-18,-171 -15,-644 6,-805c76,-593 280,-1498 500,-2215c395,-1293 828,-2043 1318,-2287c165,-81 328,-113 487,-94c179,22 310,79 496,215c10,7 32,-8 79,-51c146,-137 348,-224 651,-279c79,-15 150,-19 340,-18c212,0 252,2 344,22c87,19 252,70 313,96c19,9 22,-16 37,-444c16,-420 46,-721 93,-940c27,-127 136,-447 193,-567c182,-385 498,-609 907,-642c119,-10 289,0 418,24c507,96 842,262 1080,538c345,398 513,998 560,2002c5,121 13,240 16,265l6,45l211,1c294,1 548,37 807,114c286,85 604,274 810,480c107,108 152,171 199,282c24,57 26,75 26,194l0,130l-39,80c-69,138 -185,229 -346,270c-88,22 -273,14 -443,-20c-134,-27 -393,-60 -426,-54c-17,3 -9,22 66,153c818,1435 1295,3188 1112,4089c-63,312 -153,461 -463,772c-249,248 -463,401 -771,550c-505,244 -1110,349 -1748,303zm513,-269c742,-51 1346,-311 1810,-780c245,-248 320,-373 372,-620c25,-124 35,-470 19,-661c-92,-1065 -610,-2471 -1323,-3597c-43,-68 -76,-128 -73,-132c3,-5 31,-18 63,-30c185,-70 485,-67 902,10c91,16 192,30 226,30c215,0 319,-148 233,-330c-84,-179 -452,-442 -761,-544c-238,-79 -500,-119 -788,-119c-161,0 -213,4 -295,21c-54,12 -100,20 -101,19c-1,-1 -14,-103 -28,-227c-85,-721 -180,-1415 -222,-1613c-84,-397 -234,-651 -487,-825c-271,-187 -767,-316 -1085,-284c-248,25 -423,105 -587,267c-102,101 -164,189 -234,332c-89,182 -109,248 -140,468c-43,305 -60,618 -68,1248c-3,284 -8,517 -10,517c-2,0 -29,-21 -61,-47c-229,-187 -517,-283 -849,-283c-500,0 -893,187 -893,425c1,117 86,210 249,272c36,14 152,45 256,69c302,70 397,108 472,186c65,67 192,231 187,240c-3,4 -22,8 -42,8c-117,0 -338,57 -461,119l-59,30l-114,-122c-161,-172 -332,-365 -565,-637c-253,-296 -340,-369 -508,-426c-98,-33 -227,-37 -320,-10c-432,126 -820,731 -1200,1871c-261,780 -485,1722 -587,2465c-20,145 -17,639 5,814c66,531 230,913 520,1212c258,267 588,430 1017,503c534,91 1242,10 1952,-225l166,-55l64,42c144,93 349,179 548,229c205,51 320,64 585,64c258,-1 394,-14 626,-60l125,-25l117,35c418,127 921,185 1347,156z" fill="#007fff" id="svg_2"/>
   <path d="m6960,-567c-171,-12 -510,-56 -532,-69c-4,-2 55,-36 130,-75c163,-84 377,-223 522,-340c126,-101 348,-320 451,-444c286,-344 516,-745 634,-1105c33,-101 39,-130 43,-237c5,-146 -9,-320 -48,-583c-38,-255 -53,-451 -45,-569c4,-53 20,-215 36,-361c71,-636 45,-909 -124,-1262c-59,-125 -60,-128 -42,-148c10,-11 21,-20 25,-20c4,0 45,62 91,137c712,1174 1199,2626 1199,3575c0,251 -26,412 -85,528c-13,25 -66,95 -119,157c-416,484 -1000,761 -1711,813c-130,9 -318,11 -425,3z" fill="#007fff" id="svg_3"/>
   <path d="m4930,-681c-891,-89 -1476,-738 -1684,-1869c-24,-134 -59,-400 -52,-407c1,-2 23,8 47,21c146,82 419,178 604,212c145,27 371,25 480,-5c214,-58 355,-170 454,-361c52,-100 75,-179 116,-395c122,-649 107,-1137 -50,-1593c-24,-70 -80,-210 -125,-312c-91,-207 -240,-607 -240,-645c0,-2 26,-1 58,2c68,6 158,-14 251,-57c84,-40 194,-150 243,-245c71,-136 68,-105 72,-1008c3,-792 8,-966 41,-1317c32,-345 78,-503 203,-695c101,-156 223,-250 387,-297c169,-48 446,-23 717,66c401,131 582,339 677,778c64,295 254,1806 271,2158c7,144 13,189 34,256c57,180 155,276 364,360c23,9 21,13 -71,132c-126,162 -188,260 -263,417c-34,71 -113,220 -174,330c-144,260 -332,636 -400,800c-238,578 -282,987 -139,1283c34,71 57,102 128,173c122,121 255,186 457,223c110,20 316,29 441,19c119,-10 113,-23 56,117c-50,122 -162,339 -235,456c-428,683 -1015,1136 -1709,1318c-307,81 -675,113 -959,85z" fill="#007fff" id="svg_4"/>
   <path d="m2165,-696c-303,-23 -528,-75 -725,-166c-476,-220 -744,-635 -836,-1298c-14,-95 -18,-196 -18,-420c-1,-258 2,-314 22,-449c111,-744 361,-1755 609,-2461c248,-706 491,-1166 742,-1403c182,-170 328,-186 499,-54c30,23 159,163 286,312c128,148 297,342 377,429c79,87 164,181 187,208l44,48l-90,95c-322,340 -460,781 -397,1267c40,317 48,621 31,1203c-6,220 -6,337 3,440c72,816 318,1470 725,1928l75,84l-122,37c-289,84 -613,151 -880,181c-132,15 -444,26 -532,19z" fill="#007fff" id="svg_5"/>
   <path d="m7485,-2951c-443,-40 -596,-278 -495,-769c27,-129 110,-382 181,-550c69,-162 245,-512 386,-765c61,-110 135,-251 164,-314c61,-131 60,-131 108,13c52,159 66,256 64,481c0,156 -7,258 -32,465c-54,455 -52,574 9,1006c32,221 50,413 39,419c-7,5 -285,25 -314,24c-11,-1 -60,-5 -110,-10zm131,-154c41,-26 48,-61 23,-111c-41,-85 -158,-164 -244,-164c-95,0 -225,93 -225,161c0,44 24,68 102,104c96,44 284,50 344,10z" fill="#007fff" id="svg_6"/>
   <path d="m3970,-3000c-235,-33 -527,-142 -727,-273l-65,-42l6,-75c3,-41 9,-210 13,-375c6,-320 -3,-532 -38,-820c-23,-192 -24,-288 -4,-415c19,-128 49,-228 96,-329c170,-363 509,-614 860,-638l86,-6l7,29c29,122 146,438 248,669c130,295 191,503 218,740c14,131 12,449 -5,607c-26,243 -81,551 -117,645c-49,132 -144,225 -267,263c-73,23 -220,32 -311,20zm345,-180c120,-46 165,-126 111,-199c-79,-106 -228,-147 -341,-91c-102,50 -181,159 -167,230c6,30 15,39 62,63c53,27 60,28 165,24c83,-3 125,-10 170,-27z" fill="#007fff" id="svg_7"/>
   <path d="m7896,-6313c-148,-50 -192,-114 -203,-298l-6,-96l40,-16c77,-30 166,-41 348,-40c448,1 800,105 1096,324c44,33 79,63 76,66c-3,3 -59,-4 -124,-16c-372,-66 -706,-68 -913,-5c-57,17 -156,64 -200,94c-24,17 -28,16 -114,-13z" fill="#007fff" id="svg_8"/>
   <path d="m4525,-6336c-45,-23 -76,-55 -205,-215c-66,-81 -145,-169 -176,-197c-109,-98 -243,-151 -549,-221c-99,-23 -202,-49 -229,-58l-50,-16l49,-25c79,-40 146,-59 282,-83c163,-27 400,-23 528,10c228,57 427,189 571,377c54,70 58,80 62,137c8,123 -68,247 -174,286c-66,25 -71,25 -109,5z" fill="#007fff" id="svg_9"/>
  </g>
 </g>
</svg>